<mxfile host="app.diagrams.net" agent="Mozilla/5.0 (X11; Linux x86_64; rv:142.0) Gecko/20100101 Firefox/142.0" version="28.2.1">
  <diagram name="Página-1" id="0F6xQNTutv8Xp9iDx6KR">
    <mxGraphModel dx="1896" dy="2056" grid="1" gridSize="10" guides="1" tooltips="1" connect="1" arrows="1" fold="1" page="1" pageScale="1" pageWidth="827" pageHeight="1169" math="0" shadow="0">
      <root>
        <mxCell id="0" />
        <mxCell id="1" parent="0" />
        <mxCell id="1yenyyKcMSJqtobYhBz9-1" value="Usuário(a)" style="verticalLabelPosition=bottom;shadow=0;dashed=0;align=center;html=1;verticalAlign=top;strokeWidth=1;shape=mxgraph.mockup.containers.userFemale;strokeColor=#666666;strokeColor2=#008cff;" parent="1" vertex="1">
          <mxGeometry x="246" y="570" width="60" height="60" as="geometry" />
        </mxCell>
        <mxCell id="1yenyyKcMSJqtobYhBz9-3" value="Blog" style="html=1;whiteSpace=wrap;strokeColor=none;fillColor=#0079D6;labelPosition=center;verticalLabelPosition=middle;verticalAlign=top;align=center;fontSize=12;outlineConnect=0;spacingTop=-6;fontColor=#FFFFFF;sketch=0;shape=mxgraph.sitemap.blog;" parent="1" vertex="1">
          <mxGeometry x="216" y="410" width="120" height="70" as="geometry" />
        </mxCell>
        <mxCell id="1yenyyKcMSJqtobYhBz9-4" style="edgeStyle=orthogonalEdgeStyle;rounded=0;orthogonalLoop=1;jettySize=auto;html=1;entryX=0.5;entryY=1;entryDx=0;entryDy=0;entryPerimeter=0;flowAnimation=1;strokeWidth=4;endArrow=none;endFill=0;" parent="1" source="1yenyyKcMSJqtobYhBz9-1" target="1yenyyKcMSJqtobYhBz9-3" edge="1">
          <mxGeometry relative="1" as="geometry" />
        </mxCell>
        <mxCell id="1yenyyKcMSJqtobYhBz9-5" value="HTTP/HTTPS" style="edgeLabel;html=1;align=center;verticalAlign=middle;resizable=0;points=[];fontStyle=1" parent="1yenyyKcMSJqtobYhBz9-4" vertex="1" connectable="0">
          <mxGeometry x="0.1621" y="2" relative="1" as="geometry">
            <mxPoint y="4" as="offset" />
          </mxGeometry>
        </mxCell>
        <mxCell id="1yenyyKcMSJqtobYhBz9-6" value="" style="sketch=0;points=[[0,0,0],[0.25,0,0],[0.5,0,0],[0.75,0,0],[1,0,0],[0,1,0],[0.25,1,0],[0.5,1,0],[0.75,1,0],[1,1,0],[0,0.25,0],[0,0.5,0],[0,0.75,0],[1,0.25,0],[1,0.5,0],[1,0.75,0]];outlineConnect=0;fontColor=#232F3E;fillColor=#ED7100;strokeColor=#ffffff;dashed=0;verticalLabelPosition=bottom;verticalAlign=top;align=center;html=1;fontSize=12;fontStyle=0;aspect=fixed;shape=mxgraph.aws4.resourceIcon;resIcon=mxgraph.aws4.ec2;" parent="1" vertex="1">
          <mxGeometry x="236" y="190" width="78" height="78" as="geometry" />
        </mxCell>
        <mxCell id="1yenyyKcMSJqtobYhBz9-7" style="edgeStyle=orthogonalEdgeStyle;rounded=0;orthogonalLoop=1;jettySize=auto;html=1;exitX=0.5;exitY=0;exitDx=0;exitDy=0;exitPerimeter=0;entryX=0.5;entryY=1;entryDx=0;entryDy=0;entryPerimeter=0;strokeWidth=4;flowAnimation=1;endArrow=none;endFill=0;" parent="1" source="1yenyyKcMSJqtobYhBz9-8" target="1yenyyKcMSJqtobYhBz9-6" edge="1">
          <mxGeometry relative="1" as="geometry" />
        </mxCell>
        <mxCell id="1yenyyKcMSJqtobYhBz9-9" value="" style="edgeStyle=orthogonalEdgeStyle;rounded=0;orthogonalLoop=1;jettySize=auto;html=1;exitX=0.5;exitY=0;exitDx=0;exitDy=0;exitPerimeter=0;entryX=0.5;entryY=1;entryDx=0;entryDy=0;entryPerimeter=0;strokeWidth=4;flowAnimation=1;endArrow=none;endFill=0;" parent="1" source="1yenyyKcMSJqtobYhBz9-3" target="1yenyyKcMSJqtobYhBz9-8" edge="1">
          <mxGeometry relative="1" as="geometry">
            <mxPoint x="276" y="410" as="sourcePoint" />
            <mxPoint x="275" y="268" as="targetPoint" />
          </mxGeometry>
        </mxCell>
        <mxCell id="1yenyyKcMSJqtobYhBz9-8" value="EC2 - Web Server" style="text;html=1;align=center;verticalAlign=middle;resizable=0;points=[];autosize=1;strokeColor=none;fillColor=none;fontStyle=1;fontSize=20;" parent="1" vertex="1">
          <mxGeometry x="180" y="263" width="190" height="40" as="geometry" />
        </mxCell>
        <mxCell id="1yenyyKcMSJqtobYhBz9-10" value="" style="sketch=0;points=[[0,0,0],[0.25,0,0],[0.5,0,0],[0.75,0,0],[1,0,0],[0,1,0],[0.25,1,0],[0.5,1,0],[0.75,1,0],[1,1,0],[0,0.25,0],[0,0.5,0],[0,0.75,0],[1,0.25,0],[1,0.5,0],[1,0.75,0]];outlineConnect=0;fontColor=#232F3E;fillColor=#7AA116;strokeColor=#ffffff;dashed=0;verticalLabelPosition=bottom;verticalAlign=top;align=center;html=1;fontSize=12;fontStyle=0;aspect=fixed;shape=mxgraph.aws4.resourceIcon;resIcon=mxgraph.aws4.elastic_block_store;" parent="1" vertex="1">
          <mxGeometry x="487" y="190" width="78" height="78" as="geometry" />
        </mxCell>
        <mxCell id="1yenyyKcMSJqtobYhBz9-11" style="edgeStyle=orthogonalEdgeStyle;rounded=0;orthogonalLoop=1;jettySize=auto;html=1;entryX=0;entryY=0.5;entryDx=0;entryDy=0;entryPerimeter=0;endArrow=openThin;endFill=0;flowAnimation=1;strokeWidth=4;" parent="1" source="1yenyyKcMSJqtobYhBz9-6" target="1yenyyKcMSJqtobYhBz9-10" edge="1">
          <mxGeometry relative="1" as="geometry" />
        </mxCell>
        <mxCell id="1yenyyKcMSJqtobYhBz9-12" value="EBS -&amp;nbsp;&lt;span class=&quot;yKMVIe&quot; aria-level=&quot;1&quot; role=&quot;heading&quot;&gt;Dados persistentes&lt;/span&gt;" style="text;html=1;align=center;verticalAlign=middle;resizable=0;points=[];autosize=1;strokeColor=none;fillColor=none;fontStyle=1;fontSize=20;" parent="1" vertex="1">
          <mxGeometry x="401" y="268" width="250" height="40" as="geometry" />
        </mxCell>
        <mxCell id="1yenyyKcMSJqtobYhBz9-13" value="" style="sketch=0;points=[[0,0,0],[0.25,0,0],[0.5,0,0],[0.75,0,0],[1,0,0],[0,1,0],[0.25,1,0],[0.5,1,0],[0.75,1,0],[1,1,0],[0,0.25,0],[0,0.5,0],[0,0.75,0],[1,0.25,0],[1,0.5,0],[1,0.75,0]];outlineConnect=0;fontColor=#232F3E;fillColor=#7AA116;strokeColor=#ffffff;dashed=0;verticalLabelPosition=bottom;verticalAlign=top;align=center;html=1;fontSize=12;fontStyle=0;aspect=fixed;shape=mxgraph.aws4.resourceIcon;resIcon=mxgraph.aws4.s3;" parent="1" vertex="1">
          <mxGeometry x="487" y="20" width="78" height="78" as="geometry" />
        </mxCell>
        <mxCell id="1yenyyKcMSJqtobYhBz9-16" value="S3 - Dados estáticos" style="text;html=1;align=center;verticalAlign=middle;resizable=0;points=[];autosize=1;strokeColor=none;fillColor=none;fontStyle=1;fontSize=20;" parent="1" vertex="1">
          <mxGeometry x="426" y="-20" width="210" height="40" as="geometry" />
        </mxCell>
        <mxCell id="1yenyyKcMSJqtobYhBz9-17" value="" style="sketch=0;points=[[0,0,0],[0.25,0,0],[0.5,0,0],[0.75,0,0],[1,0,0],[0,1,0],[0.25,1,0],[0.5,1,0],[0.75,1,0],[1,1,0],[0,0.25,0],[0,0.5,0],[0,0.75,0],[1,0.25,0],[1,0.5,0],[1,0.75,0]];outlineConnect=0;fontColor=#232F3E;fillColor=#ED7100;strokeColor=#ffffff;dashed=0;verticalLabelPosition=bottom;verticalAlign=top;align=center;html=1;fontSize=12;fontStyle=0;aspect=fixed;shape=mxgraph.aws4.resourceIcon;resIcon=mxgraph.aws4.lambda;" parent="1" vertex="1">
          <mxGeometry x="920" y="20" width="78" height="78" as="geometry" />
        </mxCell>
        <mxCell id="1yenyyKcMSJqtobYhBz9-19" style="edgeStyle=orthogonalEdgeStyle;rounded=0;orthogonalLoop=1;jettySize=auto;html=1;entryX=0;entryY=0.75;entryDx=0;entryDy=0;entryPerimeter=0;flowAnimation=1;strokeWidth=4;endArrow=none;endFill=0;startArrow=openThin;startFill=0;exitX=1;exitY=0.75;exitDx=0;exitDy=0;exitPerimeter=0;" parent="1" source="1yenyyKcMSJqtobYhBz9-13" target="1yenyyKcMSJqtobYhBz9-17" edge="1">
          <mxGeometry relative="1" as="geometry">
            <Array as="points" />
          </mxGeometry>
        </mxCell>
        <mxCell id="A6aOL2PHQG94T3R8-1sS-9" value="Trigger de alterações no blog" style="edgeLabel;html=1;align=center;verticalAlign=middle;resizable=0;points=[];fontSize=20;fontStyle=1" vertex="1" connectable="0" parent="1yenyyKcMSJqtobYhBz9-19">
          <mxGeometry x="0.0536" y="2" relative="1" as="geometry">
            <mxPoint as="offset" />
          </mxGeometry>
        </mxCell>
        <mxCell id="A6aOL2PHQG94T3R8-1sS-1" style="edgeStyle=orthogonalEdgeStyle;rounded=1;orthogonalLoop=1;jettySize=auto;html=1;entryX=0;entryY=0.5;entryDx=0;entryDy=0;entryPerimeter=0;strokeWidth=4;flowAnimation=1;endArrow=openThin;endFill=0;curved=0;" edge="1" parent="1" source="1yenyyKcMSJqtobYhBz9-6" target="1yenyyKcMSJqtobYhBz9-13">
          <mxGeometry relative="1" as="geometry">
            <Array as="points">
              <mxPoint x="275" y="59" />
            </Array>
          </mxGeometry>
        </mxCell>
        <mxCell id="A6aOL2PHQG94T3R8-1sS-3" style="edgeStyle=orthogonalEdgeStyle;rounded=0;orthogonalLoop=1;jettySize=auto;html=1;exitX=0;exitY=0.25;exitDx=0;exitDy=0;exitPerimeter=0;entryX=1;entryY=0.25;entryDx=0;entryDy=0;entryPerimeter=0;flowAnimation=1;strokeWidth=4;endArrow=openThin;endFill=0;" edge="1" parent="1" source="1yenyyKcMSJqtobYhBz9-17" target="1yenyyKcMSJqtobYhBz9-13">
          <mxGeometry relative="1" as="geometry" />
        </mxCell>
        <mxCell id="A6aOL2PHQG94T3R8-1sS-8" value="Backups" style="edgeLabel;html=1;align=center;verticalAlign=middle;resizable=0;points=[];fontStyle=1;fontSize=20;" vertex="1" connectable="0" parent="A6aOL2PHQG94T3R8-1sS-3">
          <mxGeometry x="-0.0186" y="-4" relative="1" as="geometry">
            <mxPoint x="-6" y="2" as="offset" />
          </mxGeometry>
        </mxCell>
        <mxCell id="A6aOL2PHQG94T3R8-1sS-5" style="edgeStyle=orthogonalEdgeStyle;rounded=1;orthogonalLoop=1;jettySize=auto;html=1;exitX=1;exitY=0.5;exitDx=0;exitDy=0;exitPerimeter=0;entryX=0.5;entryY=1;entryDx=0;entryDy=0;entryPerimeter=0;flowAnimation=1;startArrow=openThin;startFill=0;endArrow=none;endFill=0;strokeWidth=4;curved=0;" edge="1" parent="1" source="1yenyyKcMSJqtobYhBz9-10" target="1yenyyKcMSJqtobYhBz9-17">
          <mxGeometry relative="1" as="geometry" />
        </mxCell>
        <mxCell id="A6aOL2PHQG94T3R8-1sS-7" value="Trigger de Backup" style="edgeLabel;html=1;align=center;verticalAlign=middle;resizable=0;points=[];fontStyle=1;fontSize=20;" vertex="1" connectable="0" parent="A6aOL2PHQG94T3R8-1sS-5">
          <mxGeometry x="-0.447" y="-1" relative="1" as="geometry">
            <mxPoint x="34" y="-1" as="offset" />
          </mxGeometry>
        </mxCell>
        <mxCell id="A6aOL2PHQG94T3R8-1sS-6" value="LAMBDA - Eventos" style="text;html=1;align=center;verticalAlign=middle;resizable=0;points=[];autosize=1;strokeColor=none;fillColor=none;fontStyle=1;fontSize=20;" vertex="1" parent="1">
          <mxGeometry x="861" y="-20" width="200" height="40" as="geometry" />
        </mxCell>
      </root>
    </mxGraphModel>
  </diagram>
</mxfile>
